<?xml version="1.0" encoding="UTF-8"?>
<svg id="Layer_1" xmlns="http://www.w3.org/2000/svg" version="1.1" viewBox="0 0 600 693">
  <!-- Generator: Adobe Illustrator 29.8.1, SVG Export Plug-In . SVG Version: 2.1.1 Build 2)  -->
  <defs>
    <style>
      .st0, .st1, .st2, .st3, .st4, .st5, .st6 {
        fill: none;
      }

      .st7 {
        fill: #815f51;
      }

      .st8 {
        fill: #1a1410;
      }

      .st9 {
        fill: #bf567f;
      }

      .st1 {
        stroke: #bf567f;
      }

      .st1, .st2, .st3, .st4, .st5 {
        stroke-width: 7px;
      }

      .st10 {
        fill: #fcb3c3;
      }

      .st11 {
        fill: #fff;
      }

      .st2 {
        stroke: #4478ac;
      }

      .st12 {
        fill: #4478ac;
        stroke-miterlimit: 10;
      }

      .st12, .st6 {
        stroke: #1a1410;
      }

      .st3 {
        stroke: #815f51;
      }

      .st4 {
        stroke: #fcb3c3;
      }

      .st5 {
        stroke: #feefc6;
      }

      .st6 {
        stroke-linecap: round;
        stroke-width: 9px;
      }
    </style>
  </defs>
  <path class="st8" d="M300,17.5l284.92,164.5v329l-284.92,164.5L15.08,511V182L300,17.5Z"/>
  <path class="st1" d="M294.8,41.5c3.29-1.58,7.11-1.58,10.4,0l256.34,148c3.01,2.05,4.92,5.37,5.2,9v296c-.28,3.63-2.19,6.95-5.2,9l-256.34,148c-3.29,1.58-7.11,1.58-10.4,0L38.46,503.5c-3.01-2.05-4.92-5.37-5.2-9V198.5c.28-3.63,2.19-6.95,5.2-9L294.8,41.5Z"/>
  <path class="st4" d="M284.41,65.5c9.85-4.73,21.33-4.73,31.18,0l219.97,127c9.03,6.17,14.76,16.1,15.59,27v254c-.83,10.9-6.56,20.83-15.59,27l-219.97,127c-9.85,4.73-21.33,4.73-31.18,0l-219.97-127c-9.03-6.17-14.76-16.1-15.59-27v-254c.83-10.9,6.56-20.83,15.59-27l219.97-127Z"/>
  <path class="st5" d="M267.09,93.5c20.8-9.99,45.02-9.99,65.82,0l169.74,98c19.06,13.02,31.16,33.99,32.91,57v196c-1.75,23.01-13.85,43.98-32.91,57l-169.74,98c-20.8,9.99-45.02,9.99-65.82,0l-169.74-98c-19.06-13.02-31.16-33.99-32.91-57v-196c1.75-23.01,13.85-43.98,32.91-57l169.74-98Z"/>
  <path class="st3" d="M243.71,124c35.58-17.09,77-17.09,112.58,0l108.25,62.5c32.6,22.27,53.31,58.14,56.3,97.5v125c-2.99,39.36-23.7,75.23-56.3,97.5l-108.25,62.5c-35.58,17.09-77,17.09-112.58,0l-108.25-62.5c-32.6-22.27-53.31-58.14-56.3-97.5v-125c2.99-39.36,23.7-75.23,56.3-97.5l108.25-62.5Z"/>
  <path class="st2" d="M217.73,154c52-24.98,112.54-24.98,164.54,0l43.3,25c47.64,32.54,77.91,84.97,82.28,142.5v50c-4.37,57.53-34.64,109.96-82.28,142.5l-43.3,25c-52,24.98-112.54,24.98-164.54,0l-43.3-25c-47.64-32.54-77.91-84.97-82.28-142.5v-50c4.37-57.53,34.64-109.96,82.28-142.5l43.3-25Z"/>
  <path class="st1" d="M300,149.5c108.8,0,197,88.2,197,197s-88.2,197-197,197-189.18-80.59-196.49-182.72c-.34-4.71-.51-9.47-.51-14.28,0-13.31,1.32-26.31,3.83-38.87,18.05-90.18,97.67-158.13,193.17-158.13Z"/>
  <circle class="st4" cx="300" cy="346.5" r="182"/>
  <circle class="st5" cx="300" cy="346.5" r="167"/>
  <circle class="st3" cx="300" cy="346.5" r="152"/>
  <circle class="st2" cx="300" cy="346.5" r="137"/>
  <circle class="st1" cx="300" cy="346.5" r="122"/>
  <circle class="st4" cx="300" cy="346.5" r="107"/>
  <circle class="st8" cx="300" cy="346.5" r="90"/>
  <circle class="st10" cx="300" cy="346.5" r="70"/>
  <circle class="st11" cx="300" cy="346.5" r="7"/>
  <g>
    <rect class="st8" x="528.38" y="190.82" width="44" height="24" rx="6" ry="6" transform="translate(11.54 434.55) rotate(-43.5)"/>
    <line class="st6" x1="524.98" y1="226.92" x2="429.98" y2="316.92"/>
    <circle class="st8" cx="524.98" cy="226.92" r="26"/>
    <circle class="st7" cx="524.98" cy="226.92" r="17"/>
    <circle class="st8" cx="524.98" cy="226.92" r="6"/>
    <rect class="st8" x="407.98" y="307.92" width="44" height="18" rx="4" ry="4" transform="translate(-22.48 600.83) rotate(-68.5)"/>
  </g>
  <g>
    <circle class="st0" cx="300" cy="346.5" r="29.34"/>
    <path class="st12" d="M269.11,356.04c.32-.2.6-.35.83-.45.23-.1.43-.17.6-.2.17-.03.31-.02.42.03.11.04.2.12.26.22l6.63,10.83c.22.37.3.74.24,1.12s-.34.72-.83,1.02l-18.79,11.5c-.49.3-.92.39-1.29.27-.37-.12-.67-.36-.89-.73l-6.59-10.76c-.06-.1-.09-.21-.08-.32,0-.11.06-.24.17-.38.1-.14.26-.29.46-.45.2-.16.47-.34.8-.55.31-.19.58-.34.82-.44.23-.11.43-.17.6-.2.17-.03.31-.02.41.02.11.04.19.11.25.21l4.71,7.7,5.26-3.22-3.99-6.51c-.06-.1-.09-.21-.08-.33.01-.12.06-.25.16-.38.09-.13.24-.28.44-.44.2-.16.45-.34.77-.53.32-.2.6-.35.83-.45.23-.1.42-.16.58-.19.16-.02.3,0,.4.04.11.05.19.12.25.22l3.99,6.51,6.08-3.72-4.75-7.76c-.06-.1-.09-.21-.08-.33.01-.12.07-.25.16-.39.1-.14.25-.29.45-.45.2-.16.46-.34.78-.54Z"/>
    <path class="st12" d="M253.85,343.64c.47-.04.85-.06,1.15-.05.3,0,.54.02.71.06.17.04.3.1.37.18.07.08.11.18.12.31,0,.1,0,.22-.04.36-.04.13-.07.28-.11.45-.04.17-.07.35-.1.55-.03.2-.04.41-.02.65.02.27.1.54.23.8.13.26.33.53.58.81.26.27.59.55,1.01.84.42.29.92.59,1.52.91l10.82-.87c.13,0,.25.02.35.09s.2.2.27.38c.08.18.15.43.21.74.06.31.1.7.14,1.18.04.48.05.88.05,1.19,0,.31-.04.57-.09.76-.05.19-.12.33-.21.42-.09.09-.2.13-.33.14l-17.37,1.39c-.13.01-.25-.01-.35-.07-.1-.06-.19-.17-.27-.33-.08-.16-.14-.38-.2-.64-.05-.26-.1-.6-.13-1-.03-.42-.04-.76-.03-1.04.01-.28.04-.49.1-.64s.13-.27.22-.34c.09-.07.2-.11.33-.12l2.16-.17c-.69-.4-1.25-.79-1.71-1.16-.45-.37-.82-.73-1.09-1.07-.28-.34-.48-.69-.6-1.05-.13-.36-.2-.72-.23-1.08-.01-.17-.02-.35-.01-.55,0-.2.02-.4.05-.61.03-.21.07-.4.11-.56.05-.16.1-.28.16-.36.06-.08.13-.13.2-.17.08-.04.18-.08.31-.11.13-.04.34-.07.61-.11.27-.03.64-.07,1.11-.11Z"/>
    <path class="st12" d="M274.76,328.81c.17.07.28.18.33.34.05.16.05.38-.01.66s-.19.67-.38,1.18c-.21.55-.39.94-.52,1.17s-.28.38-.41.45c-.14.07-.29.07-.46,0l-1.29-.5c.46.95.72,1.92.79,2.93.07,1.01-.1,2.04-.5,3.08-.33.86-.75,1.61-1.25,2.25-.5.63-1.08,1.13-1.73,1.49-.65.36-1.36.55-2.12.59-.77.04-1.59-.11-2.46-.45-.95-.37-1.7-.87-2.25-1.51-.56-.64-.92-1.42-1.09-2.33-.17-.91-.16-1.95.05-3.13s.58-2.49,1.14-3.94l.61-1.58-.98-.38c-.51-.2-.98-.32-1.4-.36-.42-.04-.81,0-1.15.14s-.66.38-.93.73c-.27.35-.52.81-.75,1.4-.29.76-.47,1.48-.54,2.15-.06.67-.08,1.27-.05,1.81.03.54.07,1,.12,1.38.05.38.04.66-.04.86-.05.13-.14.23-.26.3-.12.07-.28.11-.46.12-.18,0-.4-.02-.64-.07-.24-.05-.51-.13-.79-.24-.38-.15-.66-.29-.86-.44-.2-.14-.35-.34-.46-.57-.11-.24-.19-.61-.24-1.12-.05-.51-.05-1.08-.02-1.72.04-.64.13-1.32.27-2.04.14-.72.35-1.44.63-2.15.49-1.28,1.04-2.32,1.64-3.13.6-.81,1.27-1.41,2.01-1.79.74-.38,1.57-.55,2.49-.5.92.05,1.93.29,3.05.72l10.93,4.22ZM266.06,330.62l-.68,1.75c-.29.74-.47,1.39-.57,1.96s-.09,1.05,0,1.46c.09.41.26.75.52,1.03.25.27.58.48.98.64.68.26,1.3.25,1.85-.03.55-.28.98-.8,1.28-1.57.25-.64.31-1.3.19-1.97-.12-.67-.39-1.4-.8-2.21l-2.77-1.07Z"/>
    <path class="st12" d="M286.71,310.7c.52.73.89,1.47,1.11,2.21.22.74.31,1.46.28,2.17-.03.71-.18,1.4-.44,2.08-.26.68-.61,1.34-1.06,1.97-.44.63-.97,1.24-1.57,1.82-.6.58-1.32,1.16-2.15,1.75l-5.48,3.88c-.35.25-.72.35-1.1.32-.39-.04-.74-.29-1.08-.76l-12.74-17.98c-.33-.47-.45-.89-.36-1.27.09-.38.31-.69.66-.94l5.18-3.67c1.26-.9,2.41-1.55,3.44-1.96,1.03-.41,1.99-.61,2.9-.61.9,0,1.75.22,2.54.66.79.43,1.49,1.1,2.13,1.99.35.5.62,1.01.81,1.54.18.53.28,1.06.29,1.6.01.54-.06,1.07-.22,1.59-.16.53-.41,1.04-.75,1.53.66-.31,1.33-.5,2.01-.59.68-.08,1.36-.05,2.02.11.66.16,1.3.45,1.91.86.61.41,1.17.97,1.66,1.67ZM275.14,305.86c-.29-.41-.62-.74-.98-.98-.36-.24-.75-.38-1.16-.41-.41-.04-.85.02-1.32.18-.47.16-1.03.47-1.68.92l-2.12,1.5,3.79,5.35,2.34-1.66c.61-.43,1.04-.84,1.3-1.24s.42-.81.48-1.23c.06-.42.03-.84-.09-1.25s-.31-.81-.58-1.18ZM282.46,313.93c-.34-.48-.72-.85-1.15-1.11-.43-.27-.88-.42-1.37-.45-.49-.04-1.02.04-1.6.25s-1.25.57-2.01,1.11l-2.49,1.76,4.16,5.87,3.03-2.14c.58-.42,1.03-.82,1.34-1.23s.53-.83.65-1.28c.12-.45.14-.91.05-1.38-.09-.47-.29-.94-.62-1.39Z"/>
    <path class="st12" d="M301.64,300.29c.05.47.08.85.08,1.15,0,.3,0,.54-.04.71-.03.17-.09.3-.17.37-.08.07-.18.12-.31.13-.1.01-.22,0-.36-.03-.13-.03-.28-.06-.45-.1-.17-.03-.35-.06-.55-.09-.2-.02-.41-.02-.65,0-.27.03-.54.11-.8.25-.26.14-.52.34-.79.6s-.54.61-.81,1.03-.56.94-.87,1.55l1.15,10.8c.01.13-.01.25-.08.35-.07.11-.19.2-.37.29-.18.08-.43.16-.73.23-.31.07-.7.12-1.18.18-.48.05-.88.08-1.19.08-.31,0-.57-.02-.76-.07-.19-.04-.34-.11-.42-.2s-.14-.2-.15-.33l-1.85-17.32c-.01-.13,0-.25.06-.35.05-.1.16-.2.32-.28s.37-.16.63-.22c.26-.06.59-.11,1-.16.41-.04.76-.06,1.03-.06s.49.03.65.08c.16.05.27.12.35.21.08.09.12.2.13.33l.23,2.16c.38-.7.75-1.28,1.11-1.74.36-.46.7-.84,1.04-1.12.34-.29.68-.49,1.03-.63.35-.14.71-.22,1.07-.26.17-.02.35-.03.55-.03.2,0,.4,0,.61.03.21.02.4.05.56.1.16.04.28.09.36.15.08.06.14.12.18.2s.08.18.12.31c.04.13.08.33.12.61.04.27.09.64.14,1.11Z"/>
    <path class="st12" d="M321.71,312.78c-.21.56-.49.93-.84,1.1-.35.17-.75.18-1.18.01l-9.93-3.72c-.26.69-.42,1.36-.46,1.98-.05.63.03,1.21.24,1.74.21.53.56,1.01,1.05,1.43.49.42,1.13.78,1.92,1.08.8.3,1.53.51,2.19.62.65.11,1.23.18,1.73.21.5.03.91.04,1.25.03s.6.02.78.09c.11.04.19.1.25.17s.09.17.1.3c0,.13-.02.3-.07.5-.06.21-.14.46-.26.77-.1.27-.19.49-.28.68-.08.19-.16.34-.24.46-.07.13-.15.22-.24.3-.08.07-.18.14-.29.19-.11.06-.37.09-.78.1-.41.01-.91-.01-1.51-.08-.6-.07-1.28-.18-2.02-.34-.75-.16-1.52-.39-2.32-.7-1.45-.54-2.65-1.2-3.61-1.98-.96-.77-1.66-1.67-2.11-2.69-.45-1.02-.65-2.16-.58-3.43.07-1.27.38-2.66.96-4.19.54-1.45,1.22-2.69,2.04-3.71.81-1.02,1.73-1.8,2.76-2.35,1.02-.54,2.13-.83,3.32-.87s2.43.18,3.72.67c1.37.51,2.46,1.15,3.28,1.92.82.77,1.4,1.62,1.76,2.57.35.95.5,1.96.42,3.05-.07,1.08-.32,2.2-.75,3.35l-.27.73ZM317.74,309.79c.52-1.28.64-2.39.37-3.34-.28-.95-1-1.64-2.16-2.07-.58-.22-1.14-.3-1.65-.24-.51.06-.99.22-1.41.48-.42.26-.81.62-1.15,1.07-.34.45-.63.96-.87,1.52l6.88,2.58Z"/>
    <path class="st12" d="M348.21,335.13c-.12.07-.29.14-.49.21-.2.07-.5.16-.89.26l-15.98,3.85c-.22.05-.42.07-.59.05-.17-.02-.34-.11-.52-.25-.18-.15-.37-.39-.59-.72-.22-.33-.49-.77-.81-1.33-.32-.55-.56-1.01-.74-1.38-.17-.37-.28-.67-.33-.9-.04-.24-.04-.43.03-.59.07-.16.18-.31.33-.46l7.71-7.83.13-.12-.17.05-10.52,2.95c-.22.07-.41.09-.58.07s-.34-.1-.53-.27c-.18-.16-.39-.42-.61-.75-.22-.34-.5-.78-.81-1.33-.33-.56-.57-1.03-.74-1.39-.17-.36-.28-.66-.33-.9-.05-.24-.04-.43.03-.59.07-.16.18-.31.33-.46l11.35-11.87c.27-.29.49-.5.66-.64.17-.14.32-.24.44-.31.11-.06.23-.09.35-.08.12.01.25.09.4.22.15.13.31.33.49.6.18.26.39.6.63,1.02.26.45.46.82.6,1.12.14.29.23.54.26.73.04.19.02.34-.04.46-.06.12-.15.23-.26.34l-9.36,9.38-.18.15.22-.08,12.7-3.58c.16-.04.3-.06.44-.04.14.02.28.08.42.2.14.11.3.3.47.55.17.25.38.59.62,1,.24.42.42.76.54,1.04.12.27.2.5.24.69.04.18.03.33-.02.44-.05.11-.12.22-.21.32l-9.43,9.45-.16.16.22-.08,12.74-3.51c.15-.06.29-.08.42-.07.13.01.28.08.42.21.15.12.31.32.49.57.18.26.39.59.63,1.01.24.42.43.77.56,1.04.13.28.21.51.25.69.04.18.03.32-.02.43-.05.11-.13.19-.25.26Z"/>
    <path class="st12" d="M337.3,361.25c-.59-.1-1.01-.3-1.25-.61-.24-.31-.32-.7-.25-1.16l1.72-10.46c-.73-.12-1.41-.14-2.04-.07-.63.08-1.18.27-1.66.58s-.88.75-1.19,1.31c-.32.56-.54,1.26-.68,2.1-.14.85-.2,1.6-.18,2.27.02.66.06,1.24.13,1.73.07.49.14.9.21,1.23.07.33.09.59.06.78-.02.12-.06.21-.11.28-.06.07-.15.12-.27.15-.12.03-.29.04-.51.03-.21-.02-.48-.05-.8-.1-.28-.05-.52-.09-.72-.14-.2-.05-.36-.09-.5-.14-.14-.05-.25-.11-.34-.17s-.17-.15-.25-.25c-.08-.1-.16-.35-.25-.74-.09-.4-.17-.9-.22-1.5-.05-.6-.07-1.29-.06-2.05.01-.76.09-1.57.23-2.42.25-1.53.66-2.84,1.24-3.92.57-1.09,1.32-1.95,2.23-2.59.91-.64,1.99-1.05,3.25-1.24,1.26-.18,2.69-.14,4.3.12,1.53.25,2.87.68,4.04,1.28,1.16.6,2.11,1.35,2.84,2.25.73.9,1.23,1.93,1.5,3.09.27,1.16.29,2.42.07,3.78-.24,1.44-.65,2.63-1.24,3.59-.59.95-1.32,1.69-2.18,2.23-.86.53-1.83.87-2.91,1.01s-2.22.11-3.43-.09l-.77-.13ZM339.46,356.78c1.36.26,2.47.17,3.34-.29.87-.46,1.41-1.3,1.61-2.52.1-.62.07-1.17-.08-1.67s-.41-.92-.75-1.29c-.34-.37-.77-.67-1.27-.92-.51-.25-1.06-.43-1.66-.56l-1.19,7.25Z"/>
    <path class="st12" d="M332.77,379.12c-.38-.28-.68-.52-.9-.72s-.39-.37-.49-.51-.16-.27-.16-.37c0-.11.03-.21.11-.32.06-.08.15-.16.27-.24.11-.08.24-.17.38-.26.14-.1.28-.21.44-.34.15-.13.3-.29.44-.48.16-.22.28-.47.36-.76s.11-.62.09-.99c-.01-.38-.08-.81-.2-1.3-.12-.49-.3-1.05-.54-1.69l-8.7-6.5c-.11-.08-.17-.18-.21-.3-.03-.12-.02-.28.04-.47.06-.19.17-.42.33-.69.16-.27.38-.6.67-.98.29-.39.54-.69.75-.92.21-.23.4-.4.57-.51.17-.11.31-.17.43-.18s.24.03.34.11l13.96,10.42c.1.08.18.17.22.28.04.11.03.25-.02.43-.05.17-.14.38-.27.61-.13.23-.32.51-.56.83-.25.33-.47.6-.66.8-.19.2-.36.34-.5.42-.14.08-.27.12-.39.11-.12,0-.23-.05-.33-.13l-1.74-1.3c.25.75.42,1.42.52,2s.14,1.08.12,1.53c-.02.44-.1.83-.24,1.19-.14.35-.32.67-.54.96-.1.13-.22.28-.35.42-.13.14-.28.29-.44.43-.16.14-.31.25-.45.34-.14.09-.26.15-.35.16-.09.02-.18.02-.27,0s-.19-.06-.31-.12c-.13-.06-.3-.17-.53-.32-.23-.15-.53-.37-.9-.65Z"/>
  </g>
  <g>
    <path class="st9" d="M280.97,382.7c0,.14-.02.24-.05.31-.03.07-.07.1-.12.1h-.46c.06.07.11.15.14.24.03.09.04.18.04.28,0,.23-.04.43-.11.61-.08.18-.19.33-.33.45-.14.12-.31.21-.51.28-.2.06-.42.09-.67.09-.13,0-.25-.01-.36-.05-.11-.03-.2-.07-.26-.11-.04.04-.07.08-.09.14-.03.05-.04.11-.04.18,0,.08.04.16.11.21.08.05.18.08.31.09l.95.04c.22,0,.42.04.59.09.17.05.32.13.44.23.12.1.21.22.27.35.06.14.09.29.09.47,0,.19-.04.38-.13.55-.08.17-.21.32-.38.45s-.38.23-.64.3c-.26.07-.56.11-.9.11s-.62-.03-.85-.08c-.24-.05-.43-.13-.58-.22-.15-.09-.26-.21-.33-.34-.07-.13-.1-.27-.1-.43,0-.1.01-.19.04-.28.02-.09.06-.17.11-.25.05-.08.11-.16.18-.23s.15-.14.24-.21c-.13-.07-.22-.16-.29-.27-.07-.12-.1-.24-.1-.38,0-.17.04-.33.12-.47.08-.14.18-.27.31-.38-.1-.1-.19-.23-.25-.37-.06-.14-.09-.32-.09-.54,0-.23.04-.43.12-.61.08-.18.19-.33.34-.46.14-.12.31-.22.51-.29.2-.07.42-.1.66-.1.12,0,.24,0,.35.02.11.01.22.04.31.06h1.24s.09.03.12.1c.03.06.05.17.05.33ZM279.81,386.75c0-.13-.05-.23-.16-.3s-.25-.11-.43-.11l-.79-.02c-.08.06-.14.11-.18.16-.04.05-.08.1-.11.15-.03.05-.05.09-.06.14,0,.04-.01.09-.01.14,0,.15.07.26.22.33.15.08.36.11.63.11.17,0,.31-.02.42-.05.11-.03.21-.08.28-.13s.12-.12.15-.19c.03-.07.04-.14.04-.22ZM279.55,383.62c0-.21-.06-.38-.18-.49-.12-.12-.28-.18-.5-.18-.11,0-.2.02-.29.06-.08.04-.15.09-.2.15-.05.06-.09.14-.12.22-.03.08-.04.17-.04.26,0,.2.06.36.18.47.12.12.28.17.49.17.11,0,.21-.02.29-.05.08-.04.15-.08.2-.15.05-.06.09-.13.12-.21.03-.08.04-.17.04-.25Z"/>
    <path class="st9" d="M282.89,381.1c0,.22-.04.38-.14.46s-.26.13-.5.13-.42-.04-.5-.12c-.09-.08-.13-.23-.13-.44s.04-.38.13-.46c.09-.09.26-.13.51-.13s.41.04.5.12c.09.08.13.23.13.45ZM282.81,386.35s0,.05-.03.08c-.02.02-.05.04-.09.05-.04.01-.1.03-.17.03-.07,0-.16.01-.27.01s-.2,0-.27-.01c-.07,0-.13-.02-.17-.03-.04-.01-.07-.03-.09-.05-.02-.02-.03-.05-.03-.08v-3.91s0-.05.03-.08c.02-.02.05-.04.09-.06.04-.02.1-.03.17-.04s.16-.01.27-.01.2,0,.27.01.13.02.17.04c.04.02.07.04.09.06.02.02.03.05.03.08v3.91Z"/>
    <path class="st9" d="M286.23,385.96c0,.13,0,.23-.02.3-.02.07-.04.12-.06.14-.03.03-.07.05-.12.08-.05.02-.11.04-.18.06-.07.02-.14.03-.22.04-.08,0-.16.01-.24.01-.22,0-.41-.03-.57-.08s-.29-.14-.4-.26c-.11-.12-.18-.26-.23-.44s-.08-.38-.08-.62v-2.01h-.47c-.06,0-.1-.03-.13-.1-.03-.07-.04-.18-.04-.34,0-.08,0-.16.01-.22,0-.06.02-.1.03-.14.01-.03.03-.06.06-.07.02-.01.05-.02.08-.02h.46v-.88s0-.06.02-.08c.02-.02.05-.04.09-.06.04-.02.1-.03.17-.04.07,0,.16-.01.27-.01s.2,0,.27.01c.07,0,.13.02.17.04.04.02.07.04.09.06s.03.05.03.08v.88h.85s.05,0,.08.02c.02.01.04.04.05.07.01.03.03.08.03.14,0,.06.01.13.01.22,0,.16-.01.28-.04.34-.03.07-.07.1-.13.1h-.86v1.84c0,.21.03.38.1.48.07.11.19.16.36.16.06,0,.11,0,.16-.01.05-.01.09-.02.13-.04.04-.01.07-.03.09-.04.03-.01.05-.02.07-.02.02,0,.03,0,.05.02.02,0,.03.03.04.06,0,.03.02.07.02.12,0,.05.01.12.01.2Z"/>
    <path class="st9" d="M290.78,386.35s0,.05-.03.08c-.02.02-.05.04-.09.05s-.1.03-.17.03c-.07,0-.16.01-.27.01s-.2,0-.27-.01c-.07,0-.13-.02-.17-.03s-.07-.03-.09-.05c-.02-.02-.03-.05-.03-.08v-2.24c0-.19-.01-.34-.04-.45-.03-.11-.07-.2-.12-.28-.05-.08-.12-.14-.2-.18-.08-.04-.18-.06-.29-.06-.14,0-.28.05-.43.15s-.29.25-.45.45v2.61s0,.05-.03.08c-.02.02-.05.04-.09.05-.04.01-.1.03-.17.03-.07,0-.16.01-.27.01s-.2,0-.27-.01c-.07,0-.13-.02-.17-.03-.04-.01-.07-.03-.09-.05-.02-.02-.03-.05-.03-.08v-5.78s0-.06.03-.08.05-.04.09-.06c.04-.02.1-.03.17-.04s.16-.01.27-.01.2,0,.27.01.13.02.17.04c.04.02.07.04.09.06s.03.05.03.08v2.17c.19-.19.38-.33.58-.42.2-.09.4-.14.62-.14.27,0,.49.04.67.13.18.09.33.21.44.36.11.15.19.33.24.53.05.2.08.45.08.74v2.4Z"/>
    <path class="st9" d="M295.58,386.35s0,.05-.02.08c-.02.02-.04.04-.08.05-.04.01-.08.03-.15.03-.06,0-.14.01-.23.01-.1,0-.17,0-.23-.01-.06,0-.11-.02-.14-.03s-.06-.03-.08-.05c-.01-.02-.02-.05-.02-.08v-.45c-.22.23-.44.41-.66.53-.22.12-.46.18-.7.18-.27,0-.5-.04-.68-.13-.18-.09-.33-.21-.44-.36-.11-.15-.19-.33-.24-.53-.05-.2-.07-.45-.07-.75v-2.4s0-.05.02-.08c.02-.02.05-.04.09-.05.04-.01.1-.03.17-.03.07,0,.16-.01.27-.01s.2,0,.27.01c.07,0,.13.02.17.03.04.01.07.03.09.05.02.02.03.05.03.08v2.21c0,.21.01.36.04.47.03.11.07.2.12.28.05.08.12.14.21.18.08.04.18.06.29.06.14,0,.28-.05.42-.15.14-.1.29-.25.46-.45v-2.61s0-.05.02-.08c.02-.02.04-.04.09-.05.04-.01.1-.03.17-.03.07,0,.16-.01.27-.01s.2,0,.27.01c.07,0,.13.02.17.03s.07.03.09.05c.02.02.03.05.03.08v3.92Z"/>
    <path class="st9" d="M300.64,384.33c0,.35-.04.66-.11.94s-.19.52-.33.71c-.14.2-.32.35-.53.45-.21.11-.45.16-.71.16-.13,0-.25-.01-.37-.04-.11-.03-.22-.07-.33-.12-.1-.06-.21-.13-.31-.21-.1-.08-.21-.19-.31-.31v.43s0,.06-.02.08c-.02.02-.04.04-.08.05-.04.01-.09.03-.15.03s-.14,0-.22,0-.17,0-.23,0c-.06,0-.11-.02-.15-.03-.04-.01-.06-.03-.08-.05-.02-.02-.02-.05-.02-.08v-5.78s0-.06.03-.08.05-.04.09-.06c.04-.02.1-.03.17-.04s.16-.01.27-.01.2,0,.27.01.13.02.17.04c.04.02.07.04.09.06s.03.05.03.08v2.17c.1-.1.2-.18.3-.25s.2-.13.3-.17c.1-.04.2-.08.31-.1s.22-.03.33-.03c.29,0,.54.06.74.17.2.12.37.27.49.47.13.2.22.43.28.69.06.26.09.54.09.83ZM299.49,384.41c0-.17-.01-.33-.04-.48-.02-.16-.07-.29-.13-.41-.06-.12-.14-.22-.24-.29-.1-.07-.22-.11-.37-.11-.07,0-.15,0-.22.03s-.14.06-.22.11c-.08.05-.15.11-.23.19-.08.08-.16.18-.25.29v1.3c.16.2.3.35.45.46.14.1.29.16.45.16.14,0,.27-.04.37-.11s.18-.17.25-.29c.07-.12.11-.25.14-.4s.04-.3.04-.45Z"/>
    <path class="st9" d="M302.82,385.86c0,.27-.05.46-.14.55-.1.09-.27.14-.51.14s-.42-.05-.51-.14c-.09-.09-.14-.27-.14-.53,0-.28.05-.46.14-.55.09-.09.27-.14.52-.14s.41.05.5.14c.09.09.14.27.14.53Z"/>
    <path class="st9" d="M306.89,385.72c0,.08,0,.14,0,.19,0,.05-.01.09-.02.13,0,.04-.02.06-.03.09-.01.02-.03.05-.07.08-.04.03-.1.07-.18.12-.08.05-.18.09-.29.13-.11.04-.23.07-.35.09-.13.02-.26.04-.39.04-.3,0-.57-.05-.8-.14-.23-.09-.43-.23-.59-.42-.16-.18-.28-.41-.36-.67-.08-.26-.12-.57-.12-.91,0-.39.05-.73.15-1.02.1-.29.24-.52.41-.71s.38-.33.62-.42.5-.14.79-.14c.12,0,.23,0,.35.03.11.02.22.05.32.08.1.04.19.07.26.12.08.04.13.08.16.11s.06.06.07.08c.01.02.02.05.03.08,0,.04.01.08.02.13,0,.05,0,.11,0,.19,0,.17-.01.29-.04.36-.03.07-.07.1-.12.1-.05,0-.1-.02-.16-.06s-.12-.09-.2-.14-.17-.09-.27-.14-.23-.06-.38-.06c-.29,0-.51.11-.66.33-.15.22-.23.54-.23.97,0,.21.02.4.06.56.04.16.09.3.17.4.07.11.17.19.28.24.11.05.24.08.39.08s.28-.02.39-.07c.11-.04.21-.1.29-.15s.15-.11.21-.15c.06-.05.1-.07.14-.07.03,0,.05,0,.07.02s.03.04.04.08c0,.04.02.09.02.15,0,.06,0,.14,0,.24Z"/>
    <path class="st9" d="M311.61,384.35c0,.33-.04.64-.13.91s-.22.51-.4.71c-.18.2-.4.35-.67.46s-.58.16-.94.16-.65-.05-.91-.14-.47-.24-.64-.42-.3-.41-.38-.68-.12-.58-.12-.92.04-.64.13-.92c.09-.28.22-.51.4-.71.18-.2.4-.35.67-.46.27-.11.58-.16.94-.16s.66.05.91.14c.26.09.47.23.64.42.17.18.29.41.38.68s.12.58.12.93ZM310.47,384.39c0-.19-.01-.37-.05-.53-.03-.16-.08-.3-.16-.42-.07-.12-.17-.21-.29-.28-.12-.07-.27-.1-.46-.1-.16,0-.31.03-.43.09-.12.06-.22.15-.3.26-.08.12-.14.25-.18.42-.04.16-.06.35-.06.56,0,.19.02.37.05.53.03.16.08.3.16.42.07.12.17.21.29.28.12.07.28.1.46.1.17,0,.31-.03.44-.09.12-.06.22-.15.3-.26s.14-.25.18-.42c.04-.16.06-.35.06-.56Z"/>
    <path class="st9" d="M318.72,386.35s0,.05-.03.08c-.02.02-.05.04-.09.05-.04.01-.1.03-.17.03-.07,0-.16.01-.27.01s-.2,0-.27-.01c-.07,0-.13-.02-.17-.03-.04-.01-.07-.03-.09-.05-.02-.02-.02-.05-.02-.08v-2.33c0-.13-.01-.25-.04-.36-.03-.11-.06-.2-.11-.28-.05-.08-.12-.14-.19-.18-.08-.04-.17-.06-.28-.06-.13,0-.27.05-.4.15s-.28.25-.44.45v2.61s0,.05-.03.08c-.02.02-.05.04-.09.05-.04.01-.1.03-.17.03-.07,0-.16.01-.26.01s-.2,0-.27-.01c-.07,0-.13-.02-.17-.03-.04-.01-.07-.03-.09-.05-.02-.02-.03-.05-.03-.08v-2.33c0-.13-.01-.25-.04-.36-.03-.11-.06-.2-.11-.28-.05-.08-.11-.14-.19-.18-.08-.04-.17-.06-.28-.06-.13,0-.27.05-.4.15s-.28.25-.43.45v2.61s0,.05-.03.08c-.02.02-.05.04-.09.05-.04.01-.1.03-.17.03-.07,0-.16.01-.27.01s-.2,0-.27-.01c-.07,0-.13-.02-.17-.03-.04-.01-.07-.03-.09-.05-.02-.02-.03-.05-.03-.08v-3.92s0-.05.02-.08c.01-.02.04-.04.08-.05s.09-.03.15-.03c.06,0,.14-.01.23-.01s.17,0,.23.01c.06,0,.11.02.14.03.03.01.06.03.07.05.01.02.02.05.02.08v.45c.22-.23.43-.41.65-.53.22-.12.44-.18.67-.18.16,0,.31.02.43.05.13.03.24.08.35.15.1.06.19.14.26.23.07.09.13.19.18.29.12-.13.23-.23.35-.33.11-.09.22-.17.33-.22.11-.06.22-.1.33-.13.11-.03.22-.04.34-.04.26,0,.48.04.66.13s.32.21.43.36c.11.15.19.33.23.53s.07.42.07.64v2.51Z"/>
    <path class="st9" d="M320.36,387.63s-.03.07-.06.09c-.02.02-.06.04-.1.06-.04.01-.09.03-.16.03-.06,0-.14.01-.24.01-.12,0-.22,0-.29-.02-.08-.01-.13-.03-.17-.05-.04-.02-.06-.05-.07-.09,0-.04,0-.08.02-.13l2.63-7.38s.03-.07.05-.09c.02-.02.06-.04.1-.06s.09-.03.16-.03c.07,0,.15-.01.24-.01.12,0,.22,0,.3.02.08.01.13.03.17.05s.06.05.07.09c0,.04,0,.08-.01.13l-2.62,7.38Z"/>
    <path class="st9" d="M283.08,395.35s0,.05-.03.08c-.02.02-.05.04-.09.05-.04.01-.1.03-.17.03-.07,0-.16.01-.27.01s-.2,0-.27-.01c-.07,0-.13-.02-.17-.03-.04-.01-.07-.03-.09-.05-.02-.02-.02-.05-.02-.08v-2.33c0-.13-.01-.25-.04-.36-.03-.11-.06-.2-.11-.28-.05-.08-.12-.14-.19-.18-.08-.04-.17-.06-.28-.06-.13,0-.27.05-.4.15s-.28.25-.44.45v2.61s0,.05-.03.08c-.02.02-.05.04-.09.05-.04.01-.1.03-.17.03-.07,0-.16.01-.26.01s-.2,0-.27-.01c-.07,0-.13-.02-.17-.03-.04-.01-.07-.03-.09-.05-.02-.02-.03-.05-.03-.08v-2.33c0-.13-.01-.25-.04-.36-.03-.11-.06-.2-.11-.28-.05-.08-.11-.14-.19-.18-.08-.04-.17-.06-.28-.06-.13,0-.27.05-.4.15s-.28.25-.43.45v2.61s0,.05-.03.08c-.02.02-.05.04-.09.05-.04.01-.1.03-.17.03-.07,0-.16.01-.27.01s-.2,0-.27-.01c-.07,0-.13-.02-.17-.03-.04-.01-.07-.03-.09-.05-.02-.02-.03-.05-.03-.08v-3.92s0-.05.02-.08c.01-.02.04-.04.08-.05s.09-.03.15-.03c.06,0,.14-.01.23-.01s.17,0,.23.01c.06,0,.11.02.14.03.03.01.06.03.07.05.01.02.02.05.02.08v.45c.22-.23.43-.41.65-.53.22-.12.44-.18.67-.18.16,0,.31.02.43.05.13.03.24.08.35.15.1.06.19.14.26.23.07.09.13.19.18.29.12-.13.23-.23.35-.33.11-.09.22-.17.33-.22.11-.06.22-.1.33-.13.11-.03.22-.04.34-.04.26,0,.48.04.66.13s.32.21.43.36c.11.15.19.33.23.53s.07.42.07.64v2.51Z"/>
    <path class="st9" d="M287.51,395.36s-.01.07-.04.1-.08.04-.14.05c-.06,0-.16.02-.28.02-.13,0-.23,0-.29-.02-.06-.01-.1-.03-.13-.05-.02-.02-.04-.06-.04-.1v-.31c-.16.17-.34.31-.55.4-.21.1-.44.14-.69.14-.21,0-.4-.03-.57-.08-.17-.05-.33-.13-.45-.24-.13-.11-.23-.24-.3-.4s-.11-.34-.11-.55c0-.23.04-.43.13-.59.09-.17.22-.31.4-.42.18-.11.4-.19.66-.24s.57-.08.92-.08h.38v-.24c0-.12-.01-.23-.04-.32-.02-.09-.07-.17-.12-.23-.06-.06-.13-.11-.23-.14-.09-.03-.21-.04-.35-.04-.18,0-.35.02-.49.06-.15.04-.27.09-.38.14s-.2.1-.28.14c-.07.04-.14.06-.18.06-.03,0-.06-.01-.08-.03-.03-.02-.05-.05-.06-.09-.02-.04-.03-.08-.04-.14,0-.06-.01-.12-.01-.18,0-.09,0-.16.02-.21s.04-.1.08-.14c.04-.04.11-.09.21-.14.1-.05.22-.1.36-.14.14-.04.29-.08.45-.11.16-.03.33-.04.5-.04.31,0,.57.03.79.09.22.06.4.15.54.28.14.12.24.29.31.48s.1.43.1.7v2.64ZM286.43,393.68h-.42c-.18,0-.33.01-.46.04-.13.03-.23.07-.31.12-.08.05-.14.12-.17.19-.04.08-.06.16-.06.26,0,.16.05.29.16.39.1.09.25.14.43.14.15,0,.3-.04.43-.12.13-.08.26-.2.4-.35v-.67Z"/>
    <path class="st9" d="M290.85,394.96c0,.13,0,.23-.02.3-.02.07-.04.12-.06.14-.03.03-.07.05-.12.08-.05.02-.11.04-.18.06-.07.02-.14.03-.22.04-.08,0-.16.01-.24.01-.22,0-.41-.03-.57-.08s-.29-.14-.4-.26c-.11-.12-.18-.26-.23-.44s-.08-.38-.08-.62v-2.01h-.47c-.06,0-.1-.03-.13-.1-.03-.07-.04-.18-.04-.34,0-.08,0-.16.01-.22,0-.06.02-.1.03-.14.01-.03.03-.06.06-.07.02-.01.05-.02.08-.02h.46v-.88s0-.06.02-.08c.02-.02.05-.04.09-.06.04-.02.1-.03.17-.04.07,0,.16-.01.27-.01s.2,0,.27.01c.07,0,.13.02.17.04.04.02.07.04.09.06s.03.05.03.08v.88h.85s.05,0,.08.02c.02.01.04.04.05.07.01.03.03.08.03.14,0,.06.01.13.01.22,0,.16-.01.28-.04.34-.03.07-.07.1-.13.1h-.86v1.84c0,.21.03.38.1.48.07.11.19.16.36.16.06,0,.11,0,.16-.01.05-.01.09-.02.13-.04.04-.01.07-.03.09-.04.03-.01.05-.02.07-.02.02,0,.03,0,.05.02.02,0,.03.03.04.06,0,.03.02.07.02.12,0,.05.01.12.01.2Z"/>
    <path class="st9" d="M295.39,395.35s0,.05-.03.08c-.02.02-.05.04-.09.05s-.1.03-.17.03c-.07,0-.16.01-.27.01s-.2,0-.27-.01c-.07,0-.13-.02-.17-.03s-.07-.03-.09-.05c-.02-.02-.03-.05-.03-.08v-2.24c0-.19-.01-.34-.04-.45-.03-.11-.07-.2-.12-.28-.05-.08-.12-.14-.2-.18-.08-.04-.18-.06-.29-.06-.14,0-.28.05-.43.15s-.29.25-.45.45v2.61s0,.05-.03.08c-.02.02-.05.04-.09.05-.04.01-.1.03-.17.03-.07,0-.16.01-.27.01s-.2,0-.27-.01c-.07,0-.13-.02-.17-.03-.04-.01-.07-.03-.09-.05-.02-.02-.03-.05-.03-.08v-5.78s0-.06.03-.08.05-.04.09-.06c.04-.02.1-.03.17-.04s.16-.01.27-.01.2,0,.27.01.13.02.17.04c.04.02.07.04.09.06s.03.05.03.08v2.17c.19-.19.38-.33.58-.42.2-.09.4-.14.62-.14.27,0,.49.04.67.13.18.09.33.21.44.36.11.15.19.33.24.53.05.2.08.45.08.74v2.4Z"/>
    <path class="st9" d="M297.67,390.1c0,.22-.04.38-.14.46s-.26.13-.5.13-.42-.04-.5-.12c-.09-.08-.13-.23-.13-.44s.04-.38.13-.46c.09-.09.26-.13.51-.13s.41.04.5.12c.09.08.13.23.13.45ZM297.59,395.35s0,.05-.03.08c-.02.02-.05.04-.09.05-.04.01-.1.03-.17.03-.07,0-.16.01-.27.01s-.2,0-.27-.01c-.07,0-.13-.02-.17-.03-.04-.01-.07-.03-.09-.05-.02-.02-.03-.05-.03-.08v-3.91s0-.05.03-.08c.02-.02.05-.04.09-.06.04-.02.1-.03.17-.04s.16-.01.27-.01.2,0,.27.01.13.02.17.04c.04.02.07.04.09.06.02.02.03.05.03.08v3.91Z"/>
    <path class="st9" d="M302.03,395.36s-.01.07-.04.1-.08.04-.14.05c-.06,0-.16.02-.28.02-.13,0-.23,0-.29-.02-.06-.01-.1-.03-.13-.05-.02-.02-.04-.06-.04-.1v-.31c-.16.17-.34.31-.55.4-.21.1-.44.14-.69.14-.21,0-.4-.03-.57-.08-.17-.05-.33-.13-.45-.24-.13-.11-.23-.24-.3-.4s-.11-.34-.11-.55c0-.23.04-.43.13-.59.09-.17.22-.31.4-.42.18-.11.4-.19.66-.24s.57-.08.92-.08h.38v-.24c0-.12-.01-.23-.04-.32-.02-.09-.07-.17-.12-.23-.06-.06-.13-.11-.23-.14-.09-.03-.21-.04-.35-.04-.18,0-.35.02-.49.06-.15.04-.27.09-.38.14s-.2.1-.28.14c-.07.04-.14.06-.18.06-.03,0-.06-.01-.08-.03-.03-.02-.05-.05-.06-.09-.02-.04-.03-.08-.04-.14,0-.06-.01-.12-.01-.18,0-.09,0-.16.02-.21s.04-.1.08-.14c.04-.04.11-.09.21-.14.1-.05.22-.1.36-.14.14-.04.29-.08.45-.11.16-.03.33-.04.5-.04.31,0,.57.03.79.09.22.06.4.15.54.28.14.12.24.29.31.48s.1.43.1.7v2.64ZM300.95,393.68h-.42c-.18,0-.33.01-.46.04-.13.03-.23.07-.31.12-.08.05-.14.12-.17.19-.04.08-.06.16-.06.26,0,.16.05.29.16.39.1.09.25.14.43.14.15,0,.3-.04.43-.12.13-.08.26-.2.4-.35v-.67Z"/>
    <path class="st9" d="M305.89,394.24c0,.22-.04.42-.12.59-.08.17-.2.31-.35.43s-.33.2-.54.26c-.21.06-.43.08-.68.08-.15,0-.29-.01-.42-.03-.13-.02-.25-.05-.36-.08s-.19-.07-.26-.1-.12-.07-.15-.1c-.03-.03-.06-.08-.07-.14-.02-.07-.03-.16-.03-.29,0-.08,0-.15,0-.2,0-.05.01-.09.03-.12.01-.03.03-.05.04-.06.02,0,.04-.02.07-.02.03,0,.08.02.14.06.06.04.14.08.24.12s.2.08.33.12c.12.04.27.06.42.06.1,0,.19-.01.27-.03.08-.02.14-.05.2-.09.06-.04.1-.09.13-.14.03-.06.04-.13.04-.2,0-.09-.03-.16-.08-.23-.05-.06-.13-.12-.21-.17-.09-.05-.19-.09-.3-.13-.11-.04-.23-.09-.35-.14-.12-.05-.23-.11-.35-.17-.11-.06-.21-.14-.3-.24-.09-.09-.16-.21-.22-.34-.05-.13-.08-.29-.08-.47s.04-.36.11-.52c.07-.16.18-.29.32-.4.14-.11.3-.2.5-.26.2-.06.42-.09.67-.09.12,0,.24,0,.36.03.12.02.22.04.31.07s.17.05.24.09c.06.03.11.06.14.08.03.02.05.04.06.07.01.02.02.05.03.08,0,.03.01.07.01.11,0,.05,0,.1,0,.17,0,.08,0,.14,0,.19,0,.05-.01.09-.02.12-.01.03-.02.05-.04.06-.02,0-.04.01-.06.01-.03,0-.07-.01-.12-.05-.06-.03-.12-.06-.21-.1-.08-.04-.18-.07-.29-.1-.11-.03-.23-.05-.38-.05-.1,0-.19.01-.26.03s-.13.05-.18.09c-.05.04-.08.08-.11.13-.02.05-.04.11-.04.17,0,.09.03.17.08.23s.13.12.22.16.19.09.31.13c.12.04.23.09.35.13.12.05.24.1.35.17.12.06.22.14.31.24s.16.21.22.34c.05.13.08.29.08.46Z"/>
    <path class="st9" d="M308.67,393.28c0,.17-.02.29-.05.36s-.08.1-.15.1h-1.83c-.07,0-.13-.03-.16-.1-.03-.07-.05-.19-.05-.35s.02-.28.05-.35.08-.1.16-.1h1.83s.07,0,.09.02c.03.01.05.04.06.07s.03.08.04.14c0,.06.01.13.01.21Z"/>
    <path class="st9" d="M312.24,394.24c0,.22-.04.42-.12.59-.08.17-.2.31-.35.43s-.33.2-.54.26c-.21.06-.43.08-.68.08-.15,0-.29-.01-.42-.03-.13-.02-.25-.05-.36-.08s-.19-.07-.26-.1-.12-.07-.15-.1c-.03-.03-.06-.08-.07-.14-.02-.07-.03-.16-.03-.29,0-.08,0-.15,0-.2,0-.05.01-.09.03-.12.01-.03.03-.05.04-.06.02,0,.04-.02.07-.02.03,0,.08.02.14.06.06.04.14.08.24.12s.2.08.33.12c.12.04.27.06.42.06.1,0,.19-.01.27-.03.08-.02.14-.05.2-.09.06-.04.1-.09.13-.14.03-.06.04-.13.04-.2,0-.09-.03-.16-.08-.23-.05-.06-.13-.12-.21-.17-.09-.05-.19-.09-.3-.13-.11-.04-.23-.09-.35-.14-.12-.05-.23-.11-.35-.17-.11-.06-.21-.14-.3-.24-.09-.09-.16-.21-.22-.34-.05-.13-.08-.29-.08-.47s.04-.36.11-.52c.07-.16.18-.29.32-.4.14-.11.3-.2.5-.26.2-.06.42-.09.67-.09.12,0,.24,0,.36.03.12.02.22.04.31.07s.17.05.24.09c.06.03.11.06.14.08.03.02.05.04.06.07.01.02.02.05.03.08,0,.03.01.07.01.11,0,.05,0,.1,0,.17,0,.08,0,.14,0,.19,0,.05-.01.09-.02.12-.01.03-.02.05-.04.06-.02,0-.04.01-.06.01-.03,0-.07-.01-.12-.05-.06-.03-.12-.06-.21-.1-.08-.04-.18-.07-.29-.1-.11-.03-.23-.05-.38-.05-.1,0-.19.01-.26.03s-.13.05-.18.09c-.05.04-.08.08-.11.13-.02.05-.04.11-.04.17,0,.09.03.17.08.23s.13.12.22.16.19.09.31.13c.12.04.23.09.35.13.12.05.24.1.35.17.12.06.22.14.31.24s.16.21.22.34c.05.13.08.29.08.46Z"/>
    <path class="st9" d="M319.3,395.35s0,.05-.03.08c-.02.02-.05.04-.09.05-.04.01-.1.03-.17.03-.07,0-.16.01-.27.01s-.2,0-.27-.01c-.07,0-.13-.02-.17-.03-.04-.01-.07-.03-.09-.05-.02-.02-.02-.05-.02-.08v-2.33c0-.13-.01-.25-.04-.36-.03-.11-.06-.2-.11-.28-.05-.08-.12-.14-.19-.18-.08-.04-.17-.06-.28-.06-.13,0-.27.05-.4.15s-.28.25-.44.45v2.61s0,.05-.03.08c-.02.02-.05.04-.09.05-.04.01-.1.03-.17.03-.07,0-.16.01-.26.01s-.2,0-.27-.01c-.07,0-.13-.02-.17-.03-.04-.01-.07-.03-.09-.05-.02-.02-.03-.05-.03-.08v-2.33c0-.13-.01-.25-.04-.36-.03-.11-.06-.2-.11-.28-.05-.08-.11-.14-.19-.18-.08-.04-.17-.06-.28-.06-.13,0-.27.05-.4.15s-.28.25-.43.45v2.61s0,.05-.03.08c-.02.02-.05.04-.09.05-.04.01-.1.03-.17.03-.07,0-.16.01-.27.01s-.2,0-.27-.01c-.07,0-.13-.02-.17-.03-.04-.01-.07-.03-.09-.05-.02-.02-.03-.05-.03-.08v-3.92s0-.05.02-.08c.01-.02.04-.04.08-.05s.09-.03.15-.03c.06,0,.14-.01.23-.01s.17,0,.23.01c.06,0,.11.02.14.03.03.01.06.03.07.05.01.02.02.05.02.08v.45c.22-.23.43-.41.65-.53.22-.12.44-.18.67-.18.16,0,.31.02.43.05.13.03.24.08.35.15.1.06.19.14.26.23.07.09.13.19.18.29.12-.13.23-.23.35-.33.11-.09.22-.17.33-.22.11-.06.22-.1.33-.13.11-.03.22-.04.34-.04.26,0,.48.04.66.13s.32.21.43.36c.11.15.19.33.23.53s.07.42.07.64v2.51Z"/>
    <path class="st9" d="M320.94,396.63s-.03.07-.06.09c-.02.02-.06.04-.1.06-.04.01-.09.03-.16.03-.06,0-.14.01-.24.01-.12,0-.22,0-.29-.02-.08-.01-.13-.03-.17-.05-.04-.02-.06-.05-.07-.09,0-.04,0-.08.02-.13l2.63-7.38s.03-.07.05-.09c.02-.02.06-.04.1-.06s.09-.03.16-.03c.07,0,.15-.01.24-.01.12,0,.22,0,.3.02.08.01.13.03.17.05s.06.05.07.09c0,.04,0,.08-.01.13l-2.62,7.38Z"/>
    <path class="st9" d="M284.58,404.04c0,.08,0,.16-.01.21,0,.06-.02.1-.03.14s-.03.06-.05.08c-.02.02-.05.02-.07.02h-2.86c-.1,0-.18-.03-.24-.09-.07-.06-.1-.15-.1-.28v-4.96c0-.13.03-.22.1-.28.07-.06.15-.09.24-.09h2.84s.05,0,.07.02.04.04.05.08c.01.04.03.08.03.14,0,.06.01.13.01.22,0,.08,0,.15-.01.21,0,.06-.02.1-.03.14s-.03.06-.05.08c-.02.02-.04.02-.07.02h-2.03v1.39h1.72s.05,0,.07.02c.02.02.04.04.06.07.01.03.03.08.03.14,0,.06.01.13.01.21s0,.16-.01.21c0,.06-.02.1-.03.13-.02.03-.03.06-.06.07-.02.01-.05.02-.07.02h-1.72v1.6h2.05s.05,0,.07.02c.02.02.04.04.05.08s.03.08.03.14c0,.06.01.13.01.21Z"/>
    <path class="st9" d="M288.05,400.79c0,.11,0,.19,0,.26s-.01.12-.03.16c-.01.04-.03.06-.05.08-.02.01-.04.02-.07.02-.02,0-.05,0-.08-.01-.03-.01-.06-.02-.1-.03-.04-.01-.08-.02-.12-.03-.04,0-.09-.02-.14-.02-.06,0-.12.01-.19.04-.06.02-.12.06-.19.12-.07.05-.13.12-.21.21-.07.09-.15.2-.23.33v2.44s0,.05-.03.08c-.02.02-.05.04-.09.05-.04.01-.1.03-.17.03-.07,0-.16.01-.27.01s-.2,0-.27-.01c-.07,0-.13-.02-.17-.03-.04-.01-.07-.03-.09-.05-.02-.02-.03-.05-.03-.08v-3.92s0-.05.02-.08c.01-.02.04-.04.08-.05s.09-.03.15-.03c.06,0,.14-.01.23-.01s.17,0,.23.01c.06,0,.11.02.14.03.03.01.06.03.07.05.01.02.02.05.02.08v.49c.1-.15.2-.27.29-.36.09-.09.18-.17.26-.23s.16-.09.25-.12c.08-.02.16-.03.25-.03.04,0,.08,0,.12,0,.04,0,.09.01.14.02.05,0,.09.02.12.04.04.01.06.03.08.04.02.01.03.03.04.05,0,.02.01.04.02.07,0,.03,0,.08.01.14s0,.14,0,.25Z"/>
    <path class="st9" d="M291.87,404.36s-.01.07-.04.1-.08.04-.14.05c-.06,0-.16.02-.28.02-.13,0-.23,0-.29-.02-.06-.01-.1-.03-.13-.05-.02-.02-.04-.06-.04-.1v-.31c-.16.17-.34.31-.55.4-.21.1-.44.14-.69.14-.21,0-.4-.03-.57-.08-.17-.05-.33-.13-.45-.24-.13-.11-.23-.24-.3-.4s-.11-.34-.11-.55c0-.23.04-.43.13-.59.09-.17.22-.31.4-.42.18-.11.4-.19.66-.24s.57-.08.92-.08h.38v-.24c0-.12-.01-.23-.04-.32-.02-.09-.07-.17-.12-.23-.06-.06-.13-.11-.23-.14-.09-.03-.21-.04-.35-.04-.18,0-.35.02-.49.06-.15.04-.27.09-.38.14s-.2.1-.28.14c-.07.04-.14.06-.18.06-.03,0-.06-.01-.08-.03-.03-.02-.05-.05-.06-.09-.02-.04-.03-.08-.04-.14,0-.06-.01-.12-.01-.18,0-.09,0-.16.02-.21s.04-.1.08-.14c.04-.04.11-.09.21-.14.1-.05.22-.1.36-.14.14-.04.29-.08.45-.11.16-.03.33-.04.5-.04.31,0,.57.03.79.09.22.06.4.15.54.28.14.12.24.29.31.48s.1.43.1.7v2.64ZM290.79,402.68h-.42c-.18,0-.33.01-.46.04-.13.03-.23.07-.31.12-.08.05-.14.12-.17.19-.04.08-.06.16-.06.26,0,.16.05.29.16.39.1.09.25.14.43.14.15,0,.3-.04.43-.12.13-.08.26-.2.4-.35v-.67Z"/>
    <path class="st9" d="M297.16,402.79c0,.2-.03.38-.08.55-.06.16-.13.31-.23.44-.1.13-.21.23-.35.33-.14.09-.29.17-.45.22s-.34.1-.53.13c-.19.03-.39.04-.62.04h-1.51c-.1,0-.18-.03-.24-.09-.07-.06-.1-.15-.1-.28v-4.96c0-.13.03-.22.1-.28.07-.06.15-.09.24-.09h1.43c.35,0,.64.03.89.09.24.06.45.15.61.27.17.12.29.27.38.45s.13.4.13.64c0,.14-.02.27-.05.39-.04.12-.09.23-.15.33s-.15.19-.25.26c-.1.08-.21.14-.34.18.16.03.31.08.45.15.14.07.25.17.36.28.1.12.18.25.24.41s.09.33.09.52ZM295.66,400.39c0-.11-.02-.22-.05-.31s-.09-.17-.16-.23c-.07-.06-.16-.11-.27-.14-.11-.03-.25-.05-.43-.05h-.58v1.48h.65c.17,0,.3-.02.4-.06.1-.04.18-.09.25-.16.07-.07.11-.15.15-.24.03-.09.05-.19.05-.29ZM295.96,402.83c0-.13-.02-.25-.07-.35-.04-.1-.11-.19-.19-.26s-.19-.12-.33-.16-.3-.06-.51-.06h-.69v1.62h.83c.16,0,.3-.02.41-.05.11-.03.21-.08.29-.15.08-.07.14-.15.19-.25.04-.1.07-.21.07-.34Z"/>
    <path class="st9" d="M300.54,400.79c0,.11,0,.19,0,.26s-.01.12-.03.16c-.01.04-.03.06-.05.08-.02.01-.04.02-.07.02-.02,0-.05,0-.08-.01-.03-.01-.06-.02-.1-.03-.04-.01-.08-.02-.12-.03-.04,0-.09-.02-.14-.02-.06,0-.12.01-.19.04-.06.02-.12.06-.19.12-.07.05-.13.12-.21.21-.07.09-.15.2-.23.33v2.44s0,.05-.03.08c-.02.02-.05.04-.09.05-.04.01-.1.03-.17.03-.07,0-.16.01-.27.01s-.2,0-.27-.01c-.07,0-.13-.02-.17-.03-.04-.01-.07-.03-.09-.05-.02-.02-.03-.05-.03-.08v-3.92s0-.05.02-.08c.01-.02.04-.04.08-.05s.09-.03.15-.03c.06,0,.14-.01.23-.01s.17,0,.23.01c.06,0,.11.02.14.03.03.01.06.03.07.05.01.02.02.05.02.08v.49c.1-.15.2-.27.29-.36.09-.09.18-.17.26-.23s.16-.09.25-.12c.08-.02.16-.03.25-.03.04,0,.08,0,.12,0,.04,0,.09.01.14.02.05,0,.09.02.12.04.04.01.06.03.08.04.02.01.03.03.04.05,0,.02.01.04.02.07,0,.03,0,.08.01.14s0,.14,0,.25Z"/>
    <path class="st9" d="M304.74,402.27c0,.13-.03.23-.09.3-.06.06-.14.1-.25.1h-2.39c0,.17.02.32.06.46.04.14.1.25.19.35.09.1.2.17.33.22.14.05.3.07.49.07s.36-.01.51-.04c.15-.03.27-.06.38-.09.11-.03.2-.06.27-.09.07-.03.13-.04.17-.04.03,0,.05,0,.07.02.02,0,.03.03.04.05s.02.06.02.11c0,.05,0,.11,0,.18,0,.06,0,.12,0,.17,0,.05,0,.08-.01.12s-.01.06-.03.08c-.01.02-.03.04-.05.06-.02.02-.07.05-.16.08s-.19.07-.33.1-.28.06-.45.09c-.17.02-.35.04-.54.04-.35,0-.65-.04-.92-.13-.26-.09-.48-.22-.66-.4s-.31-.4-.39-.68c-.09-.27-.13-.59-.13-.96s.04-.66.14-.94c.09-.28.22-.52.4-.71.17-.2.38-.34.63-.45.25-.1.53-.15.84-.15.33,0,.61.05.84.15.23.1.42.23.57.4.15.17.26.37.33.61s.11.49.11.76v.18ZM303.67,401.95c0-.31-.05-.55-.19-.73-.13-.18-.34-.27-.62-.27-.14,0-.26.03-.37.08-.1.05-.19.12-.26.21-.07.09-.12.19-.16.32-.04.12-.06.25-.06.39h1.65Z"/>
    <path class="st9" d="M311.6,400.42s0,.07-.01.12-.03.11-.05.2l-1.04,3.55s-.03.09-.06.12c-.02.03-.06.05-.11.07-.05.02-.12.03-.21.04-.09,0-.21,0-.35,0s-.26,0-.35-.01c-.09,0-.16-.02-.21-.04-.05-.02-.09-.04-.11-.07-.02-.03-.04-.07-.05-.12l-.66-2.38v-.04s-.02.04-.02.04l-.61,2.38s-.03.09-.05.12c-.02.03-.06.05-.11.07s-.12.03-.21.04c-.09,0-.21,0-.35,0s-.26,0-.35-.01c-.09,0-.16-.02-.21-.04-.05-.02-.09-.04-.11-.07-.02-.03-.04-.07-.05-.12l-1.04-3.55c-.03-.08-.04-.15-.05-.2,0-.05-.01-.09-.01-.12,0-.03,0-.05.02-.08.02-.02.05-.04.09-.05.04-.01.1-.02.17-.03.07,0,.16,0,.27,0,.12,0,.21,0,.29,0s.13.02.17.03.07.04.09.06c.02.03.03.05.04.09l.78,2.88v.05s.02-.05.02-.05l.73-2.88s.02-.06.04-.09c.02-.02.05-.04.08-.06s.09-.02.16-.03c.07,0,.16,0,.27,0s.2,0,.26.01c.07,0,.12.02.16.03.04.01.07.03.08.05.02.02.03.05.04.08l.78,2.9v.05s.02-.05.02-.05l.75-2.88s.02-.06.04-.09c.02-.02.05-.04.09-.06.04-.01.1-.02.17-.03s.16,0,.27,0,.2,0,.27,0c.07,0,.12.02.16.03.04.01.07.03.08.05.01.02.02.05.02.08Z"/>
    <path class="st9" d="M315.86,402.27c0,.13-.03.23-.09.3-.06.06-.14.1-.25.1h-2.39c0,.17.02.32.06.46.04.14.1.25.19.35.09.1.2.17.33.22.14.05.3.07.49.07s.36-.01.51-.04c.15-.03.27-.06.38-.09.11-.03.2-.06.27-.09.07-.03.13-.04.17-.04.03,0,.05,0,.07.02.02,0,.03.03.04.05s.02.06.02.11c0,.05,0,.11,0,.18,0,.06,0,.12,0,.17,0,.05,0,.08-.01.12s-.01.06-.03.08c-.01.02-.03.04-.05.06-.02.02-.07.05-.16.08s-.19.07-.33.1-.28.06-.45.09c-.17.02-.35.04-.54.04-.35,0-.65-.04-.92-.13-.26-.09-.48-.22-.66-.4s-.31-.4-.39-.68c-.09-.27-.13-.59-.13-.96s.04-.66.14-.94c.09-.28.22-.52.4-.71.17-.2.38-.34.63-.45.25-.1.53-.15.84-.15.33,0,.61.05.84.15.23.1.42.23.57.4.15.17.26.37.33.61s.11.49.11.76v.18ZM314.79,401.95c0-.31-.05-.55-.19-.73-.13-.18-.34-.27-.62-.27-.14,0-.26.03-.37.08-.1.05-.19.12-.26.21-.07.09-.12.19-.16.32-.04.12-.06.25-.06.39h1.65Z"/>
    <path class="st9" d="M319.29,400.79c0,.11,0,.19,0,.26s-.01.12-.03.16c-.01.04-.03.06-.05.08-.02.01-.04.02-.07.02-.02,0-.05,0-.08-.01-.03-.01-.06-.02-.1-.03-.04-.01-.08-.02-.12-.03-.04,0-.09-.02-.14-.02-.06,0-.12.01-.19.04-.06.02-.12.06-.19.12-.07.05-.13.12-.21.21-.07.09-.15.2-.23.33v2.44s0,.05-.03.08c-.02.02-.05.04-.09.05-.04.01-.1.03-.17.03-.07,0-.16.01-.27.01s-.2,0-.27-.01c-.07,0-.13-.02-.17-.03-.04-.01-.07-.03-.09-.05-.02-.02-.03-.05-.03-.08v-3.92s0-.05.02-.08c.01-.02.04-.04.08-.05s.09-.03.15-.03c.06,0,.14-.01.23-.01s.17,0,.23.01c.06,0,.11.02.14.03.03.01.06.03.07.05.01.02.02.05.02.08v.49c.1-.15.2-.27.29-.36.09-.09.18-.17.26-.23s.16-.09.25-.12c.08-.02.16-.03.25-.03.04,0,.08,0,.12,0,.04,0,.09.01.14.02.05,0,.09.02.12.04.04.01.06.03.08.04.02.01.03.03.04.05,0,.02.01.04.02.07,0,.03,0,.08.01.14s0,.14,0,.25Z"/>
  </g>
</svg>
